<svg id="armm" xmlns="http://www.w3.org/2000/svg" viewBox="0 0 757.2 490.1"><defs><style>.cls-1{fill:#ffdf57;fill-rule:evenodd;}</style></defs><g id="armm"><path id="tawi-tawi" class="cls-1" d="M107.2,401.1c0-1.9-.4-2.5-1-3.8,2.8-1.3,.3,.1,2.6-.7l-3.8-4.6,1.5,4.6c-2.4-.8-1.4-.7-3.4-2.9-11.3-.2-8.9,5.6-17,8.4-.7,5.7,.5,2.6-3.2,5.3l-4.1,3.5c-4.8,0-3.2-.6-7-1.2l-3.3,5.1c-1.5,2,.3,.4-2.5,1.7-6.3,2.9-4.5,3.6-7.9,4.5-3.5,.9-3.8-.3-7.2,1.3-.7,3.9,0,1.3,.4,3.2,.6,3-.7,2.7-1.1,3.2l-1.4-3.3c-8.8,3.5-8.1,10-8.7,14.9l4.5-.9c-.1-.2-.3-.5-.4-.7s-.3-.5-.3-.6c-.1-.1-1.9-2.8,.5-2.7l3.6,2.4-1.9-3.6,2.9-.3c.1-.2,.2-.5,.3-.7l.7-2.7c1.9,2.1,.8,1.6,2.2,4.4l3.1-.1c1-2.1-1.9-.7,2.7-2,1.3-.3,2.2-.3,3.5-.7l5.9-1.7c3.7-.3,3,2.3,5.6-4.4,1.5-3.8,1-6.1,9.3-9l1.2,2.5c-.8,.8-1.1,1.2-2,2,4.4-.5,1.7,.1,2.7-1.8l1.2,2.4c3.3-1.9,6.1-4.3,6.5-8.2,0-.2,.2-.3,.2-.4,2.7,3.4,3.1,2.6,4.3,5.7l2.9-2.9c-.7,6.2-.9,0-1.3,5.6,3.5,3.7,1.2,1.4,4.2,2.3,4.6,1.4,2.7,3.6,3.2-1.5,.3-4.3-.2-.4,.7-2.9,1-2.9,.4-2.6,1.2-4.8,.2-.6,2.1-4.2,2.3-5.2,.5-2.7-.3-2.2,.1-5.5-3.1-.8-2.4-.2-4.8-1.8,1.3-1.6-2.6-1.4,2.3-1.4ZM3.3,456.8c-1.3-2.6-.5-2-3.2-2.3-.7,1.7,2.6,14.5,2.8,19.5,.2,3.3-1,6.1-.9,9.5,.3,8-1.8,3.1-.2,6.6,3.2-1.4,2.4-3.1,4.3-8.9,1.4-4.1,2.3-4.8,1.3-9.3-1.2-5-1.4-9.8-4.1-15.1Zm50.2-2.5c-2-.6-.8,.6-2.3-.4-1.4-1,1.1-1.1-4.1-1.1-1.9,13,11.3,11.3,6.4,1.5Zm55.9-37.3c3.7,1.4,1.1,1.5,4.1,.9,2.1-.4,3.7-1.7,4.1-3.3,.7-2.9-1.4-2.2-3-3.6-1.6-1.4,.1-1.7-2-3.7-2.3,2.3-2.2,4.7-3.2,9.7Zm.5,16.1c.9-.6,6.2-3.9,7-4.5,.8-.7,.9-1,1.6-1.7,4-3.7,4.5-.9,3.7-7.6-2.8,4.2-2.4-.7-2.6,5.4-5.5,2.4-4,2.5-6.8,4.8-2.7,2.3-2.1-.2-2.9,3.6Zm-34.4,15c1.4-1.8,2.5-4.7,2.9-7.4-2.9,.2-2.9-.7-3.6,2.6-.6,2.3-.1,3.7,.7,4.8Zm-26.1,19.5c.6,1.9,.3,2.7,3.2,2.8l4.7-1.4c-3.3-.9-5-2.6-7.9-1.4Z"/><path id="sulu" class="cls-1" d="M263.7,313.4c11.5-1.6,5.7-7.9,2.8-9.1-3.4-1.5-3.3-.3-5,1.5-1.9-1.7-1.7-1.8-4.5-1.7-4.2,.1-2.2-.5-5.3-1.5-4.8-1.6-8.8,3.5-10.3,3.3-4.3-.5-4.8-6.4-6-8.2-.5-.8-.4-.5-1.1-1.3-5.2-5.7-7.9-3.5-11.2-3.6-10.5-.2-7.4,1.4-10.4,3.9-1.7,1.4-6.5,2.2-10.9,4.1-1.7,.7-12.5,10.7-4,15.9,8.4,5.2,2.9,2.4,15.7-1.4,3.8-1.1,5,3.6,7.7,5.6,5.2-1.7-3,.2,6.1-2.9,5.8-2,3.2-3.6,9.9-5.4,2.7-.8,1.5-.2,5.9,.6,3.4,.6,1.7,4.3,.9,5.9,3.9,2.2,3.4,.8,6.5,5.3,1.2-.9,.2,.2,1.4-1.2,.5-.6,.3-.7,.9-1.6,1-1.4,.6-1,2.1-2,3.1-2.1,2.5-.9,4.5-3.9,3.9,1,1.6,1.4,4.9,1.9l-.6-4.2Zm-117.7-44.4c-1.7-.2-4.2-1.2-5-.9-2.1,1-.3,2,.8,2.4,14.2,3.9,11.8-1.8,12.6-8.9,.3-3.5,1.5-6.7,2.1-10.1-8.2,1.5-5.9,7.6-8.4,12.8-.9,1.8-1.4,2.8-2.1,4.7Zm46,105.8c5.3-1,4.1-3.9,7.1-6.5-.9-1.2-.9-.9-1.7-1.5-3.6-2.9-1.6-2.1-4.1-4.8-7.2-.2-10.3,6.3-1.3,12.8Zm-7.4-23.9c10-1.7,1,2.7,10.2-2.7,.2-.1,.4-.2,.6-.3l1.2-.6c10.2-4.3,5-8.7,1.5-9.2-1.8,1.9-3.1,5-2.2,8.1l-10.8-.2c-.9,2.8-1.2,1.4-.5,4.9Zm47.7-15.8c2.4-.7,4.5-1.2,6.7-2.2,3.8-1.7,4-1.4,4.6-3.2l-4.5,.9-.8-3.6-6.7-1.5-2.1,6.6c1.4,1,1.8,1.5,2.8,3Zm-52.9,38.9c3-.8,.3,.7,2.9-1.5,3.5-3,2.7-5.4,2.2-8-1.7,.1-2.2-.1-3.7,.5-1.7,.7-.9,.3-2,1.6-1.4,1.7-1.9,2.9-1.9,5.4l2.5,2Zm136.5-81.6c.5,1.4-.8,.2,.8,2.7,.4,.7,1.3,1.4,1.8,1.7l3.2,2.7c1.3,1.5,1.8,1.4,3.2,2.4,2.2,1.6,3.2,4.1,8.4,1,.2-.1,.3-.2,.5-.3l2-1.2c2.9-1.7,3-1.7,5.1-3.6-2.6,.3-4.2,3.2-13,4.3-2.6-3-1.1-.3-4.8-3.2-9.2-7.5-1.4-5.5-7.2-6.5Zm11.9-4.8c-.6-2.7-.4-3.7-3.1-2.1l-2-4.3c-.4,.4-1.3-.5-1.7,2.3-.6,3.6-.2,.4,1.7,2.7l1.7,2.6,3.4-1.2Zm-63.8,14.2c7,.9,5.4,.2,6.1-.9,.5-2.5-.6-2.9-2.7-4-1.9,1.4-3.1,1.7-3.4,4.9Zm-53.5,45.3c.7,1.4-1.6-.2,.9,2.2,1.4,1.5,4.9,1.5,7.4,1.4,1.1-1.2,1.5-2,2.9-2.5-1.6-1-5.4-.3-7.9,1.3l-3.3-2.4Zm-74.4-61.1c1.7-2,1.4-1.8,2.2-4.3-2.8-.9-3.6-.3-5.8,1.7,1.4,2.2,.2,1.5,3.6,2.6Zm166.1,20.4c3.8-2.7,1.3,.7,5-4.2,1.2-1.6,1.4-.9,1.7-2.6-3.8-.7-3.5,2.9-7.5,5.1l.8,1.7Zm-130-56.4l-.3-4.3c-1.4,.2-1.9,.1-3.2,.9-1.9,1.1-1.2,.4-1.9,2.7l5.4,.7Zm-10.4,20.1c2.2-1,2.1,.5,3.5-4.6l-3.3-.4c0,.1-.8,2.4-.8,2.4-.5,4.6-.3,.9,.6,2.6Zm126.7,43.2c3.9-.1,1.8,.2,4.4-1.9l-1.5-3.3c-2.5,2.5-2.3,1.5-2.9,5.2Z"/><path id="basilan" class="cls-1" d="M346.2,205.2c-1.3-1.4,.3-1.7-.9-3.6-2.7,1.6-2.6,.8-4.3,2.9l1.8,4.2c-4.2,2.5-1.4,.9-3.6,4.8-3.9-.5-3.3-1.4-6.1,1.4-3.4-2.1-9.9-5.5-12,1.7-.8,2.8-1,5.9,2.2,7.3,5.2,2.3,.3-3.2,8.5,3.7-1.1,2.9-.5,.7-1,3.6-.2,1.5-.2,1.8-.5,3.4,7.2,7,2.6,2.6,6.5,7.5,2.2,2.8,2.8,1.2,4.5,3,1,1.1,1,2.4,1.9,4,5.3-1.4,7.6,.1,13.5-2.1,23.6-8.8,14.9-.3,19.3-17.5,2-7.9,3.4-6.3,13.5-6.4,1.5-1.7,1.4-1.5,2.9-3.7l-2.9-3h-6.4c-3.7-4.4-5.7-2.1-12.5-3.3-5.3-1-2.6-1.4-3.8-5.4-1-3.4-2-1.5-5.6-1-1-1.4-2.5-3.1-3.6-4.5-5.8,1-7,0-11.4,3Zm-48.6,9.9c-2.3-.9-2.7-1.7-4.3-3.4-1.9,1.8-3,4.4-3.4,7.1,1.9-.4,2.9-1.2,3.2-2.3,.1-.4,.3-.5,.5-.7,.1,5.6,1.2,3.1,2.5,5.8,.3-3.8-.8-3.2,1.5-6.5Zm46.2,43.9c1.4,.2,1.5-.2,1.9-.3,.2-2.9,.5-.3-.5-2.9-2.8,1.3-1.7,.2-3.3,2.4,1.2,.6,.5,.4,1.9,.8Zm3.4,7c-.8-3.5-1.7-4.7-4-2,3.3,1.9,2.2,3.2,3.2,1.7,.2-.3,.6,.3,.8,.3Z"/><path id="maguindanao" class="cls-1" d="M688.1,106.1c-1-.8-6.3-9-6.6-9.9-1-3.8,.9-9.7,.4-14.7-12.5,12.9-5.3,6.3-18.4,13-6.5,3.3-4.2,2.6-8.2,7.7-6.8,8.8-5.1,3.9-5.8,7.5,0,.2,.1,.8,.1,.7,0-.2,.1,.5,.2,.7,5.6,.6-.9-.6,4.7-1l2.1,9.4c-8.5,1.4-1.2-.3-6.7,0,.1,.1,.2,.3,.2,.3,0,.1,.2,.3,.2,.4,.7,2.6,1.4,6.6-.7,9.7l1.5,2.7c0,.1,.1,.3,.2,.5l1.6,3.3c.9,1.8,1.1,2,2.4,3.4,1.7,1.8,.9,1.2,2.2,2.8,4.4,5.4,11.4,1.9,8.2,10.8-3.8-.5-1.2,.1-3.8-1l-1.1-.6c-.2-.1-.3-.2-.5-.3-.2-.1-.4-.2-.6-.3l-2.9-1.4c-.2-.1-.5-.2-.7-.2-7.3-2.9-3.2-6.8-11.9-6.6-5.3,.1-6.2,2.9-11.2,4.1-9.2,2.2-11.4,18.3-14.3,23.4-2.2,3.7-.6,1.8-1.5,6.1-.7,3.4-2.1,1.4-.8,5.2,.7,2.1,1.3-1,.8,3.1-.4,3.2-4,4.9,1.3,12.4l.9,1c1.6-1.8,.5-1.6,3-3,3.5,1.7,3.9,1.8,3.9,6.7h33.8c1.9,.8,.3-.2,1.5,1.4l1,1.6h22.6c5.3,0,5.3-.2,8.6-2.2,2.9-1.8,3.3-2.7,5.9-5.3-1.5-8.8-6.3-10.2,1.5-11.8,8.4-1.7,8-1.2,16.6-.9-.4,3.6-2,10.1-3.7,12.3,4.6,.9,8.4-1,9.7,2.1,2.1,4.8-1.6,4,4.5,7.3,0,8.4,1.1,5.1,2.5,8.9,.9-1.7,2.4-5.9,3-6.7,3.5,.6,5.3,3.5,5.8,6.7h3.8c.9-5.3,7.6-4.7,13.8-9.6-2.6-1.7-9.7-6.3-12.5-6.4-.3,0-11.1,3.6-12.5-1.9v-19.3c0-15.3-1.4-5.1-1.5-13.3-.2-8.5,.8-4,3.8-6.7-1.7-2.4-1.2-1-2.2-1.8-1.5-1-9.7-12-14.3-14.4-1.9,8.2,6.8,5.5,5.3,12.8-1.5,2.8-.9,1.4-3.2,2.3l-1.9,.9c-1.7,.9-.3-.2-1.6,1,2.6,3.2,4,4.9,4.5,10.1-.8,.8-1.9,1.5-2.7,2.6l-1.7,4.1c-8.3-.1-2.4-2.3-15.5-3.2-6-10.2-5.9-6.6-10.4-7.8-5.2-1.4-9.2-8.7-9.4-10-.5-3.6,8.8-15,8.6-18.7-12.5-.5-3.2,2.5-10.7,1.6-.9,7.7-1.4,1.2-6.1,9.6-5.2-.5-3.6,.3-6.1-3.1,2-7.2,8-12,9.7-17.9h3.7c.3-8.2,5.7-13.3,7.6-20.2Z"/><path id="cotabato" class="cls-1" d="M665.4,150.9c-.7-2.9,1.4-.7-2.1-2.9-1.2-.8-1.6-.7-2.9-1.3-2.9-1.5-7.8-7.6-8.6-9-2.3-4.2,.5-1.9-3.5-4.9-7.7,7.6-1.4,6.4-5.1,8.5,1.5,.3,6.5,1,6.6,1,3.7,1.7,.9,3.9,7.2,6.2l4.5,2.2c4.1,2.1,3,.7,3.9,.2Z"/><path id="lanao-del-sur" class="cls-1" d="M679.5,7.9c-10-2.3-13-5.8-17.7-7.9l-.1,17.2c-1,2.8-4,5.7-6.6,6.8-6.8,0-7.2,1.5-12.1,3-.3,4.7-.4,10.4-3.1,14.3,0,0-.9,1.2-1.1,1.4-1.4,1.7-.3,.5-1.3,1.5h-11.5c2.6,8.5,1.4,10.1,2.9,11.6,.2,.1,.3,.3,.5,.4,1.7,1.8,1.5,1.9,1.6,4.4-3.5-.9-3.9,0-4.8-2.9-1.4,2.9-3.4,3.2-3.4,6.2,0,3.8,2.5,2.6-1.5,6.5-3.6,1.3-6.5-1-10.6-2.3-1.9-.6-6.1-2.3-10.1-2.8-.1,.2,.1,.1-.5,1.3l-.9,1.8c-1.1,1.7-.7,.7-1.8,2,6.5,0,11.4-.3,16.2,2.2,9.3,4.8,3.4,6.3,11.2,5.3,.1,.2,.2,.5,.3,.7,.1,.1,.2,.4,.3,.6l16.5,23.7-1.4,2.5c-.2,1,.7,.9,1.5,1.4,4,2,1.8,1.3,4.4,3.3,2.5-2.3-1.1,2.5,.9-1,1.7-2.9,3.9-4.2,6.1-7.1,13.1-17.4,6.8-1.4,26.4-21.4l4.9-3.6c5.9-2.6,3.9-4.9,12.8-3.6,6,.9,8.1,9.4,15.6,5.3,7.3-3.9,6.3,.3,12.8,.5-.7-5.1-1-2-2.9-5.6-1.4-2.7-.3-3.6-1.5-6-.7-1.4-5.6-6.8-6.7-8.5-3.2-4.9-.3-1.6-4.2-4.3-2.9-1.9-3.4-6.2-4.8-8.5l-6-10c-2.7-5.3-3.2-11.6-5.4-17.2-3.8-9.9-6.8-7.1-14.9-11.2Zm-11,25.2c3.1,1.8,2.1,.2,4.4,2.9-.5,1.4-1.1,2.5-2.3,3.4-7,4.8-4.3,.7-2.9,12.3-2.1,.2-2.5,.3-3.7,1.2,.8,2.4,1.5,3.2,2.2,5.6-3.4,0-5.7-.8-7.9-.3-11.1,2.4-7.2-1.3-14.2-2.5-5-.8-3.1-.5-7.2-2,1.4-3.2,1.5,0,0-5,8.3-.1,3.8-2,9.9-3.4,4.7-1,3.4-5.7,9.5-11,.6-.5,1-.8,1.6-1.6,2-2.8-1.4,.6,1-1.7,2.5-2.3,1.9-1,4.4-1.3s.8-1.4,5.8-1l-.6,4.4Z"/></g></svg>