<svg id="car" xmlns="http://www.w3.org/2000/svg" viewBox="0 0 163.85 336.7"><defs><style>.cls-1{fill:#72bc1f;fill-rule:evenodd;}</style></defs><g id="car"><path id="ifugao" class="cls-1" d="M130.52,246.7l8.4-2.6c5.4-1.8,4.3,2.2,6.5-5.2,0-.1,.9-2.4,.9-2.4,3.3-6.3,6.7,.8,4.3-12.7-2-11.7-.8-15.5-28.2-10.7-3.5,.6-6.3,3.1-9.1,4.7l-6.8,2.4c-3.6,.7-27-1.9-28,2.1-4.6,2.2-3.7,.7-7.8,.6l-1.3,1.9c3.6,5.9-1.2,11.4-2.3,13.8-1.3,2.8-1.2,4.1-3.2,5.9-2.2,2-3.6,1.4-5.2,2.2-1.9,1.1,0-.3-1.5,1.3,4.1,4.9,1.5,5.5,1.5,12.2-.1,4.9-.4,12,.3,16.6,3.4,2,9.6,0,16.9-1.2,5.3-.9,12.6-2.6,18.9-2.7,4.7-.1,13.8-2.6,16.4-5.5,1-1.2,1.4-1.6,2.2-2.6l4.6-6.5c1.1-2.4-.1-2.3,1.2-4.4,2.1-3.3,1.8-1.5,5.1-3.4,3.3-1.7,1.5-4.1,6.2-3.8Z"/><path id="benguet" class="cls-1" d="M21.52,334.2s-.8,1.4,3.1,1.8c1.9,.2,3.6-.3,4.9-.6,.7-.2,1.4-.3,2-.4,.3-.1,1.9-.5,2.6-.7,1.4-.3,2.9-.5,5.1-.3-1.2-6.1-.9-6.2,1.8-10.9,3.4-6.1,1.2-5.8,9.4-5.8,3.6-11.4,5.4-4.7,5.3-22.5,0-5.5-.1-7.6,1.3-11.8,1.5-4.3-.3-14.9,.2-24.2,.8-15-1.2-8.8-5.2-14.1-1.1-1.5-1.2-4.1-2-5.5-.8-1.2-2.4-1.2-6.8-7.3-2.9,.7-4.1,1.9-6.3,2.2-3.6,.5-5-.2-8.5,.8-8,2.3-4.4,13-8.1,28.9-1.2,5-5.2,7.1-7.7,10.8-1.7,2.4-.9,8.4-6.1,11.5-3.1,1.9-2.4-.7-5.1,4.1-3.2,5.7,3.4,28.5,5.3,38.4,13.3,3.6,3.2,3.4,14.8,5.6Zm11.3,2l-.3,.4,.3-.4Zm-12.4,.5l-.3-.5,.3,.5Z"/><path id="mountain-province" class="cls-1" d="M90.12,194.5c-1-.2-3-1.9-3.1-2.6-2.2-.2-1,.2-2.7-.5-1-.4-2-1.3-2.2-1.5l-1.7-3-3.9-.2c-2.6-.7-4.5-.9-6.6-1.3-2.2-.4-4.1-.1-5.6-1.7l-3.3,.4c.3,2.6,.4,4.1-1.6,4.8,.1,3.2-8,2.7-8,3.6-.7,1.4,.5,0-.9,1-.7,.6-1.3,.8-1.9,1.4-7.7,8-4.6,20.2-4.2,24.5,.5,5.7-.1,6.6-1.5,10.8l7.4,6.8c3.3,2.9,.4,5.4,6,8.2,7,1.6,12.8-13.5,12.8-14.2,.3-4.8-2.9-6.1-.3-8.5,2.3-2.1,4.1-.9,7.2-.8,.6-.5,1.2-1,1.8-1.4,4.1-2.4,10.9-1.9,15.6-1.3,21.9,2.6,25.4-12.7,54.6-8.7,.1-4.8,.3-10.6,0-15.4-.4-7.4-2-5.2-.3-12.6-21.2-4.8-13.3-8.3-26.6-3-7,2.7-2.5,5.8-13.8,13-4.9,3.2-11.2,3.4-17.2,2.2Z"/><path id="kalinga" class="cls-1" d="M100.52,128.2c-3.6-2.6-8.9-6.8-13.3-5.4-3.1,7.5,9.9,14-6.4,20.5-4,1.6-7.3,3.8-8.2,8.5-.5,2.8-.1,5.1-.6,7.8-.1,.5-.7,2.5-1,3.2-2.5,5.3-5.4,11.4-8.2,16.9-.1,.2-.2,.4-.2,.5-.4,.8-.5,1.4-.7,1.7,4,.7,5.7,1.3,9.4,2,7.7,1.6,5.6,.3,9.9,1.9,2.8,1.1,1.9,2.1,3.4,3.5l3.8,2c10.4,5.3,18.5,.1,25.6-7.5,6.8-7.3-1.4-2.3,10-7.4,2-.9,3.2-1.7,5.2-1.5,2.4,.2,15,5.3,19.7,5.8l5-13.8c.1-.2,.2-.4,.2-.6,2.7-8.9,3.2-5,7.4-7.9,2.6-1.9,3.1-6.5,1.1-9.2-3.6-5-20.7-19.2-24.3-24.5-4.7-.3-5,2.2-6.2-3-2.6,1.7-4.8,2.4-5,6.5q-1.4,0-2.7-.2l-2-.5c-2.2-.7-2-1-4.4-1.7-3.3-1.1-7-1-9.7-2-.2,.3-1.5,2.7-1.6,2.7-2.1,1.3-.5,5.9-6.2,1.7Zm-30.6,57.2c2.1,.4,3.9,.7,6.6,1.3l-6.6-1.3Z"/><path id="apayao" class="cls-1" d="M103.12,127.7l1.4-1v-.4c.7-1.2,.1-.7,1-1.8,.9-1.2,.3-.5,1.3-1.4,2.3-1.2,9.4,.3,12.3,1.7l4.4,1.9,8.1-7.2c-1.9-3.4,1.1-2.8-7-12.2-1-1.2-.5-.8-1.7-1.7-2.2-1.9-3.4-1.3-7.8-1.3,.2-4.1,10.1-24.5,12.6-29.6,1.6-3.1,4.6-4.8,7.9-6.3,1.3-13,3.5-4.4,4-17.5,.3-10.1,1-8-2.7-17l-18.2-10.3c-4-1.7-4-.3-6.9-3.1-5.5-5.4-3.7-3.8-11.8-7.4-5.1-2.2-8.5-4.6-14.3-5l-.1-8.1-4.2,.4c-.1,.4-.2,.5-.3,.8l-1,2.4c-1.2,1.9-.1,.1-2.2,1.9-2.8,2.3-1.2,3.6-4.1,5.1-1.9,1-7.7,2.3-6.9,11.9,.3,2.9,1.5,4.2,1.4,6.5-.3,4.6-1.4,11.2,.5,16.9,5.3,15.9-3.1,5.3-3.3,18.5-.2,7.4-1.5,13.8,1.3,15.5,1.9,1.2,4.6,1.3,5.9,4.3,1,4.1-.2,12.5,3.6,13.8,1.9,.7,1.8-1.7,6-1,2.4,.5,4.3,2.7,5.7,3.7,.5,7,2.3,13.8,2.4,20.1,4.2,1.3,9.8,4.3,12.7,6.9Z"/><path id="abra" class="cls-1" d="M24.22,101.2c-6.1,1.9-8.1,1-10.2,7.1-2.4,7.1-2,4.3-4,8.8l-4.3,9.2c-2.6,5.2-2.6,11.1-3.7,13.8-1,2.6-.2-1.3-1.6,2.6-1.5,4.3,1.3,4.1,3.4,3.5,6.6-1.9,11,2.9,11.2,3.6,0,6.8,.3,7.5-3,12.1-1.2,1.6-2.4,2.8-2,5.3,1,6.6,5.5,5.3,10.1,5.3l6,6.5c5.5,5,0,4.5,3.2,14.5l12.1,1c.9-1.4,1.7-2.6,2.5-4,19,0,8.8,.7,15.9-3.1l.2-3.8c.1-2.7,.3-2.6,.8-4.8l.8-1c1.3-2.1,2-3.9,3.1-6,.5-1.1,1-2.2,1.6-3.4,1.5-3.3,.8-.3,1.3-3.8l.8-1c2.3-5.8,3-7.8,3-16.4,3.1-1.4,4.5-3.7,8.6-5.3,5.1-2,5.5-2.9,7.9-7-.9-2.6-1.5-2.2-2.3-5.1-.6-2.5-.8-4.2-1.5-6.4,1.5-1,2.5-1.8,4.5-2.8l-2.6-19.2c-.6-.6-3.1-2.4-4.1-2.6-2.8-.7-3.1,.6-5.7,1.2-5.1-2.9-5-6.3-5-13.7-1.5-3.2-3.9-4.4-6.8-5.8l-4.3,2.9c-13.2-5.7-10.4,2.4-16.2,5-1.6,.7-5.8,1.4-7.5,1.8-1.8,6.4-2.5,7.8-8.1,9.5l-4.1,1.5Z"/></g></svg>