<?xml version="1.0" encoding="UTF-8"?><svg id="ncr" xmlns="http://www.w3.org/2000/svg" viewBox="0 0 27 58.1"><defs><style>.cls-1{fill:#73c01c;fill-rule:evenodd;}</style></defs><g id="Map"><path id="ncr" class="cls-1" d="M18.3,56.5c-3.3-6.7-.7-16.4,.6-18.3,2.5-3.6,4.8,2.5,3.9-6.7-.4-4,.5-6.8,.5-10.7,.2-.1,.4-.3,.5-.4,1.1-.6,2-1,3.2-1.4-1.4-2.2-1-2.6-3-4.4,.5-4.1,1.4-2.9,1.5-7.1,.1-3.4,.5-5.7,.7-7.5-2.8,1-3.3,2.6-7.9,1.5-2.1-.5-1.4-.9-3.6-1.1-1-.1-1.1,.6-1.7,.5C8.4,8.5,1.1,3.5,2.9,11.1l-2.9,1.5c.7,1.1,4.8,6.8,4.9,7,.9,3.8-2.7,3.5,1.9,8.5,2.7,2.8,4.4,9.2,1.1,13l-3.1,2.5c1.7,3.8,5.8,10.8,6.3,14.5,4.4-1,3.7-.7,7.2-1.6Z"/></g></svg>