<?xml version="1.0" encoding="UTF-8"?><svg id="region-i" xmlns="http://www.w3.org/2000/svg" viewBox="0 0 167.88 432.6"><defs><style>.cls-1{fill:#fe9801;fill-rule:evenodd;}</style></defs><g id="Map"><g id="region-i"><path id="pangasinan" class="cls-1" d="M106.48,410.4c1.2-2.7,1.6-4.2,2.5-6.7,.7-1.9,1.6-5.1,2.8-7.1l1.4,.8c1.4,2.7,2.8,5.9,4.2,8.8,4.1-1.2,10.4-3.4,14-4.1,2.6-.5,4.3,.8,6.1,2,2.4,1.7,3,2.4,3.9,5.2,6.3-1.9,4.7-2.9,7.4-7.7q.7-1.2,1-2.1c.9-3.1-.7-1.8,1.5-4.5,3.1-3.8,2.9,.1,4.6-7.2,3.7-15.9-2.2-12.2-4.2-19-4.1-13.7-2-9.4-11.6-13.4-6.4-2.7-2.7-2-9.9-1.4l-.3,.4c-5,.6-6.8,1.8-12.1,.1l-.3-.5-1.3-.4-1.2-.8-1.7-.9-2.5-.9-1.5-1-.5-.6c-1.4-.5-4.1-1.7-5.2-1.4-4.8,1.6,4.1,4.2-10.9,4.2-3.6,13.8-19.5,22.5-32.8,23.1-4.3,.2-9.8-2.7-12.6-5.9l2.2-2.7c-1.1-.5-1.9-.9-2.9-1.5-.2-6.6,2.2-.5-.2-5.9l2.2-1c-2.6-2.2-1.1-.6-6.7-3.8l-3.3-1.4c-.7,1.4-.6,1.7-1.3,2.9l-6.2-5.9c-.1-.2-.2-.4-.3-.5l-4.8-3.5c-2.7-1.2-3.1-.8-5.9,.2,.3-3.6,.9-3.4,3-4.8l-1-5.2c1.5,.3,.8,.2,1.5,.6l1.4,1c.2,.1,.3,.2,.5,.3l5.4,5.5c2.3,2.3,.7,2.2,3.6,4l.9-3c-1.9-1.1,.7,1.4-1-.5-.6-.7-.3-.2-.4-2.1-.2-2.6,.1-3.6,2.4-5.6l-2.5-3.4c-.1-.2-.2-.4-.3-.5l-2.6-2.6c-2.4,2.9,0,2.1-3.2,3.2l-1.6,.6c-2.2,1.4,2.1,.8-3.1,1.4,1.8-12.8,0-2.6-.2-11.3,.3,.2,.6,.1,.8,.4l5.2,1.8c-1.4-7.4-3.8-6.7-6.4-6.5l-.4,5c-5.3-.7-5.7-.5-8,3.6l-4.1-.7c-3.6,3.4-5,4.1-6,10-.5,3-.6,3.2-.3,6.6,.7,7.4-5.1,3.4-.7,14.1,2.4,5.7-.7,2.6-.6,8,0,2.6-.6,4-1.2,6.6,1.3,1.7,1,1,2.2,3.3-3.7,7.9-4.6,6.2-1.5,12.9l5.3,.4c.2-3.4-.5-4.1,6.6-5.7l6.4,14.8c.9,1.7,.5,.6,1.1,2.2,.1,.2,.1,.5,.2,.7l1,2.6c12,0,5.5-3.4,13.4-5.8,6.7,4.3,2.9,5,13.8,6,4.1,6.8-.3,6.3,5.9,15.9,1.7,2.7,6.8,10.9,8.7,12.5,2.7-.5,3.9-2.4,6.6-3.7,3.6-1.7,4.3-3.2,7.3-8.5,.9-1.5,.7-2.5,1.9-3.9l6-5.6c4.7,1.9,2.8,3.1,10,3,6.5,0,9.2,1.5,10.4-3.5Z"/><path id="ilocos-sur" class="cls-1" d="M96.58,119.9c-4,.2-1.8-.3-4.1,1.1l-3.4,2.3c1.1,3.3-.8,.5,2.9,2.5-.2,2-.2,.9-.4,3.1,2.3-1.1,.6,.4,2-1.9,1.9,8.5-7.7,10.7-8.9,12.3-.9,1.2,.7,1-1.7,5.7-1.7,3.4-4.1,9.6-1,13.5,7,8.9,2,5.6,10.6,8,.8,2.7,.2,2.6,.7,4.6l1.7,3.1c1.5,2.5,2.2,4,1.4,7.7l-.7,2.3c0,.1,.1,.3,.1,.3l.7,1.7c-3.2,3,.9,1.6-4.1,3.3,0,3,.1,1.9-.2,3.4l-.8,10.7c-.7,5.5-2.2-.2,.1,6.7l3.8,26.1c-.5,9.4-1.1,4.3-5.9,14.5l14.8-1.2c0,20,1.4,9.4,2.2,14.2,0,4.2-.3,3.5,2.2,5.8,.1,9.9-.9,5-1.3,10.1l4.9,5.8c5.5-4.5,5.5-15,6.1-21.7,.5-4.7,.2-8.4,3.1-11.1,3.3-3,7.1-2,11.8-2.6,3.3-.4,4.9-1.8,5.8-4.1,4.3-10.2-3.5-9.6,1.7-27.6,1.4-4.8,2.1-5.8,4.9-8.7-5.7,.1-2.6,1.4-6.4,3.1-3.8,1.6-9.1-.1-13.5-.2-1.1-2.1-2.3-2.9-2-5.5,.1-1,.9-2.4,.6-5.3-.5-5-2.2-3.6-4.6-5.7-5.3-4.8,.4-4.3-11.1-4.5l-2.7-5.1c-2.2-8.2,5.6-5.4,4.8-18.1-9.7-7.2-5.9-1.9-13.8-2.2-2.6-6.3-.1-4.9,2.3-15.9,.7-3.3,1.3-5,2.9-8,1.5-2.7,2-4.8,3.3-7.3-1.2-1.7-2.6-2.6-2.9-5.2-1.7-16.4,4.4-6.2,2.8-19.8-2.9-1.4-5.7-1.7-10-1.4-1.2,8.2-.3,4,1.3,11.2Z"/><path id="la-union" class="cls-1" d="M80.28,260.6c-3.9,9.2,1.4,9.7,.4,17.2,0,0-.7,4.4-.9,4.9-.9,2.7-1.4,1.7-2.2,3.4-1.9,4.2,1.3,7.7-4.9,5.5l3.3,4.6c5.1,7.9-1.7,7.8,1.5,13.5,5.3,9.7,1.2,10.6,1.5,15.2,.4,5.9,1.8,1.1,2.3,5,.1,.7-.7,3.4-.3,5.7,.3,2,1.5,3.9,2.2,6.1l1.1-2.9c4.2,5.9,2.9,.5,7.3,12h8.2c.4-1,.7-1.6,1.1-2.7,3.9-8.9-11.4-33-1.9-43.9,2.9-3.4,1,1.4,5.5-4.6,4.1-5.3,1.4-2.1,2.2-6.1,.3-1.6,3.2-4.4,4.2-6.1-.9-1.3-4.4-5.4-5.3-6.2,.1-4,1.5-5.7,1.5-6.3l-2.6-10.6c-1.5-3.8-1.9,2.9-1.9-12.4-17.4,0-12.6,2-17.6,5.7l-4.7,3Z"/><path id="ilocos-norte" class="cls-1" d="M130.08,111.9c.9-1.4,1.2-3.5,2.6-5.1,1.6-1.8,2.8-1.6,5.4-2.2,6.9-1.4,4-3.6,8.4-6.7,6.2-4.3,13.6,5.7,14.7-6.3,.5-6.3-1.3-12.9,1.5-16.9,8.9-12.7-1.4-.7,1.1-28.1,.4-4.4-3.2-6.8,.2-14.1,1.7-3.5,2-9.8,2.8-15,.2-1.5,.2-2,.4-3.8,.1-1,0-1.2,.2-2.2,0-.1,.4-2,.5-2.3l-1,1c-4.9,4.7-9,2.6-11.5-1.7-1.8-3.1-3.4-4.6-4.6-8.5-5,.8-1.9,.8-4.6,1.9-1.4,.6-.7,0-1.8,.4-3.3,1.2-3.3,1.9-3.1,4.3,0,.5,1.7,4.2-1.2,7.7-.9,1-.2,.3-1.4,1.2-7.2,4.7-18.3-.5-18.5-.5-3.2,1.4-6.4,4.3-8.3,6.1-1.8,3.6,2.8,5.5,3.8,16.1,.6,6.1,1.2,7.7-1.8,13.8l-8.6,15c-1.5,7.7,3.1,5.1-6,14.8,.5,1.9,.5,4.5,.3,7.2-.1,3.1,1.2,3.3,2.5,5.4-.9,2.3-.7,1.4-1.7,2.9-2.7,4.2,.6,3.6-4.6,7.1-2.8,1.9-1-1.1-2.4,3.2,6.4,0,8.9-.6,13.7,1.6,.3,1.7,.5,4,.4,6.1-.3,5.7-4.4,4.5-3.1,14.3,.7,4.8,3.6,2.7,4.7-.4,1-2.8,1.1-7.2,5.7-9.2,.7-.3,2.4-1.1,3.3-1.2-.1-.3,11.7-5.5,12-5.9Z"/></g></g></svg>