<?xml version="1.0" encoding="UTF-8"?><svg id="region-ii" xmlns="http://www.w3.org/2000/svg" viewBox="0 0 240.69 729.3"><defs><style>.cls-1{fill:#2ba6cb;}.cls-1,.cls-2{fill-rule:evenodd;}.cls-2{fill:#019fc4;}</style></defs><g id="Map"><g id="region-ii"><path id="isabela" class="cls-2" d="M167.67,625.9c.7-.5,.5-.4,1.5-1,8.9-4.7,25.6-2,35.6-2.2,4.3,0,8.9-10.6,10.8-15.1,2.8-6.7,6.7-12.1,9.7-18.7,.6-1.3,1-2.1,1.6-3.3,2.4-4.4,.9-4.8,4.2-11,1.5-2.8,1.4-.7,1.4-4,0-2.5-.8-1.2,.5-4.1,3.8-8.7-3-6.3,3.7-14.8l3.2-7.7c1.4-4.1,.7-4.6,.1-9.2-2.4,.9-1.7,1.7-3.4,2.6-2.7,1.4-2.2-.4-5.7,1.7-1.4-3.5-1.5-1.8-3.5-4.3s-1.7-4.5-.7-7.3c2-5.5,1.2-1.9,.4-5-.7-2.7-.5-6-.1-8.8,2.7,1.7,1.4,1.6,2.9,4.3-.1-5.3-1.5-5-3.4-8.4-3.7-6.8-1.3-1.4-6.3-5.5-3.3,2,.4,1.2-3,1.5-3.5,.4-8.3,3.1-8.5-3.2-7.4,2.7-2.9-1.7-6.8-4.7,.1-.2,.2-.8,.3-.7,0,.2,.2-.5,.2-.6,1.1-3.3-2.2-4.4-3.7-7.7-.9-1.9-1.3-3.4-2.2-5.3l-1.4-4.3c-14.1,0-32.3-2.1-45.9,1-5.2,1.2-2.6,2.1-15.3,2.8l-9.6,.9c-1,17,.1,7.2-6.7,13.2-1.5,1.4-2.2,3.8-2.6,5.9l-.7,1-.5,1.4-1,2.2c.1,1.7,.8,2.4-1,2.4-.3,5-3.6,9.1-3.8,12.2-.1,1.2,.8,4.4,1,6.5,.3,2.8,.1,6.4,.1,9.2,0,14.6,4.1,20.6,3.6,30.2-10.3,8.5-4.6,7.7-7.2,10.9-3.6,2.4-3.6,1.2-7.9,2.7-3.6,.5-3.5,1-6.5,2-2.3,.8-3,1-4,2.6-7.6,3.4-10.2,4.5-3.2,10.9,3.5,3.2,2.3,3.8,3.3,8.5,.8,4,4.2,2.6,9.1,2.6h11.9l25.3,33.7,34.2-16Zm56-113l-2.1-4.4c3.2-1.4,2.1-.8,3.2,.7,2.4,3-.7,3.5-1.1,3.7Z"/><path id="quirino" class="cls-2" d="M177.27,623.9l-43.6,20.3-9.6-12.8c-1.4-1.9-1.9-2.9-3.4-4.8-16.4-20.5-8.8-16.9-32.6-16.9,0,3.2-.1,4.1-.5,6.3-1.5,9.8-7.2,23,6.5,22.2l-1.4,12.7-19.6,9.3c0,10.6,3,20.7,3,33l18.6,16.2c2.9-1.4,8.1-7.1,11.3-9.6l33.4-29.4c12.6-10.2,19.6-21.5,29.2-33.7,2.7-3.5,7.3-8.5,8.7-12.8Z"/><path id="nueva-vizcaya" class="cls-2" d="M92.57,639.4c-8.6-2.2-3.4,1.4-9.7-4.1,1.6-14.2,7.3-26.2-.6-37.4-1.9-2.7-1-2.2-4.8-2.8-.4,.9-.7,1.7-1.1,3.1l-2.3,3.6c-5.5,5.8-8,7.4-20.4,8-11.1,.5-22.5,5.1-34.4,5.2-2.7,14.4-2.3,.9-2.4,21.7,0,3-3.6,16.7-6.8,17.3H5.87c-2,.6-11.6,14.4-.9,17.9,2.7,.9,4.6,1.9,7.3,2.6,.5,3.1,1.7,6.1,2.7,8.2l11.7-1.7c4.7-.3,7.6-1.5,12.5,.2l1.9,.7c5.2,1.5,15.2,.2,16.7,6.9,1.4,6.5,.3,18.8,2.3,24.4,1.4,3.9,3.7,4,5.8,7.5,1.8,3.1,2.3,5.2,4.4,8.6,1.5-1,3.6-2.9,5.4-4.3,5.5-4.1,10.9-7.7,15.7-12.7,2.1-2.2,.5-.2,1.4-1.9-6.3-5.6-12.7-10.9-18.3-16.8,0-12.6-3-22.4-3-33.5,.8-2.2,3.4-2.5,5.4-3.4l6.3-3c1.2-.5,5.5-2,6.4-2.7,1.4-1.1,3.3-8,3-11.6Z"/><path id="cagayan" class="cls-2" d="M41.77,323.9c-1.4,0-3-.9-4.2-1.4-4.1,3.9-4.7,.5-5.8,4.9l-2.2,17.6c5.8-1.4,8.4-8.2,9.4-9.6,.7-1,7.7-4.8,7.7,2v4.4c3.9,.2,19.2,6.8,21.9,9,1.5,1.2,2.3,2.6,3.8,3.8,2.8,2.4,1.7,.8,5.5,2.1l19.9,11.1,3.8,11.4c-.3,7.2-1,11.6-3.7,18.4-1.1,2.7-.7,4.4-1.2,7.2-2.4,1.5-6.1,2.3-7.6,5-3,5.3-11.3,23.5-12.2,28l6,.1c3.9,6.5,7.7,7,9,13.4,.5,2.9,1.2,3.6,1.4,6.8,5.7-.8,5.8,1.1,15.1,10.5l13.8,13.5c4.8-.3,12.4-1.4,17.7-1.5,6.4-.2,3.2,.1,7.4-1.7,5.1-2.2,41.1-1.3,48-1.3-.5-10.3-3.4-3.6-3.3-15.6,0-8.6-1-8.6-2.3-12.6l-.7-10.2s1.1-.5,1.4-2.6c.4-2.9-1-.7,1.9-3.8l-.8-5c1.4-1.1,2.4-2,3.7-3.2-.4-3.4-1.4-3.1-1.3-6.8,.1-4.4,1-4,1.4-7.4-1.5-5.7-1.6,.8-1.7-5,0-5-2.9-5.1,.4-9.7,2-2.7,.7,.3,3.1-2.7,6-7.7-.2-1.9,7-5.6,2.7-1.4,.8-.7,2.6-3.2l7.6-11c.5-1.3,.7-3.5,.8-5.2,.3-3.3-1.2-10.8-3.8-13.8-4.8-5.4-5.4-2.6-8.2-9.5-1.7-4-.2-.9-.2-4.7,0-5.7-3.9-2.6-5.9-2.6-10.9,0-3.3-2.2-8.1,7.9-2.7,5.8-.4,7.3-1.7,12.4-6.8-.3-3.5,.8-14,10.5-11.5,10.7-28.2,0-38.4-3.6l-23.6-9.3c-5.8-3.5-6-2.2-12.5-7.5l-8.7-5.5c-7.6-4.5-9.2-2-18.3-9.4-.9-.7-1.2-.8-2-1.4-1.7-1.2-2.1-1.7-3.6-3.2-5.1-5.1-9.2-7.5-19.1-7.5-1.1,.9-3.3,3.1-5.2,3.1Zm39.6-108.7l4.8,3.5c1,6,.9,5.5,5.6,7.7,3.7,1.9,5.7,2.4,9.6,3.8l1.2-.5c.1,0,.4-.2,.5-.2,8.3-3.9,1.2-3.2,1.6-10,.3-4.4,.2-4-.1-8.5-3.2,.5-1.9,.2-4,2.6-3.8-.7-7.4-2.3-10.5-2.9-4.8-1-1.4,1.9-5.6,3.7-2.1,.7-.8-.6-3.1,.8Zm70.5,55.3c-.1,4.9,1,2.5-1.4,6.4l-.6,1.1c2.2,2.2,1.6,1.2,2.4,4.2-2,2-3.5,2.2-5.8,4.2l1.2,6.8c8.1,1.1,2.9-4.1,8.4-8.2,7.9-5.9,6.8-3,7.2-8.7l3.8-.5,1.6-3.2c-10.1-4.5-2.9-5.7-9.6-5.7-3.7,0-4.6,2-7.2,3.6Zm-79.9,13.8c-1.2,1.6-.6,1.2-1.9,1.5,4.7,4.5,3.3,4.6,14,2.5,4.9-1,14,0,14.3-4.8-2.4,1.2-6.1-1.8-8.7-3.1l-11.8,3.4c-1.9,.5-4,.4-5.9,.5Zm83.6-96.8c.7,4.7,.6,4.7,9.1,10.5,7.2-7.3,1.8-6.2,4.3-11l-3-2.9c-.3,.2-.6,.1-.7,.4l-9.7,3Zm-87.9,77.9c.1-7.2-1.1-11.6-2.5-17.3-1-4,.5-2.6-2-5.4-2.4,2.5-3.4,9.8-2.9,13.5,.5,3.7,1.4,3.1,3.4,5,3.1,2.8,.3,2.1,4,4.2Zm117.1,65.9l2.2,2.6-1.6,3.9c3.1-2.2,5.7-4.4,5.2-9.9-3.5,1.2,.2-1-2.7,.7-1,.6-2.2,1.8-3.1,2.7Z"/><path id="batanes" class="cls-1" d="M148.77,72.4c-1.5,3.1-.4,9.3,1.2,12l1.7-2.5,.4-.4c1.8-1.9,2-.4,2-3.8,0-4-2.3-5.9-5.3-5.3Zm15.9-18.1c.5,4.4,.4,4.8-2.7,7.7-3,2.9-3.4,3.6-3.4,8.9,5.5,.7,4.1,.5,6-1.2,.9-.9,1.7-2.1,2.1-2.7-1.1-3.1-1.4-1.4-2-4.3,7.3-9.9,9.9-4.9,9.2-10.5-4.4-1.2-2.6-.4-9.2,2.1Zm-21.4-33c1.9-.6,4.6-2.2,5.8-3.9,3.2-4.4-1.4-3.3,3.5-6-.9-7.5,2.9-6.6-1.5-11.4-6.4,1.7-1.3,2.4-6.6,10.4-2.6,3.8-6.9,6.2-1.2,10.9Z"/></g></g></svg>