<?xml version="1.0" encoding="UTF-8"?><svg id="region-v" xmlns="http://www.w3.org/2000/svg" viewBox="0 0 288.45 367.6"><defs><style>.cls-1{fill:#03af4e;fill-rule:evenodd;}</style></defs><g id="Map"><g id="region-v"><path id="masbate" class="cls-1" d="M132.9,248.6c-2.4-.9-3.1-2.4-6.1-3.2l1.7,9.2c1.7,8-1.4,9.1,1.9,10.6l1.5,.5c2.1,1.5,1.9,6,.3,8.9-1.8,3.3-1.6-.5-1.5,4.2,0,3.2,.4,3.3-1.4,7.1-1.4,2.8-4.5,5-3.9,8.1,0,.1,.1,.4,.2,.5,1.1,5.3-2.1-.8,.3,3.8,1.4-3,1.4-3.2,5.6-3.4,1.6,2,.9,.5,1.4,3.5,.9-1.4,.5-1.1,2.3-1.9,.2,1.5,.7,2.9-.3,4l-3.5,2.1c.9,2.1,1.3,2.6,1.5,5.3-2,.6-2.2,.5-4.6,1.6l.2,3.3c-2.7-.2-1.9-.2-4.2-1.1-.3,2.1-.7,3-.9,4.4-1.5,12-.7,2.6-2,7.7-.6,2.4,.3,1,0,2.9-.5,3.8-5.8,6.2-6.1,12.9,2,2.1,.7,1.5,3.7,2.6,.9-1.3,2.9-5.5,4.3-6.5,3.1-2.4,2.8,.4,5.7-4.3,4.3-7,4,0,9.2-10.8,2.2-4.4,2.7-2.9,5.6-5.5,1.7-1.5,2.9-3.5,4.3-5.7,1.9-2.8,2.1-3,3.8-6.1,2.5-4.5,14.7-7.3,20.5,1.6s1.7-2.2,5.3,8.1c1.1,3.1,1.2,.7,1.4,4.8l.1,1.2c2.3,.7,1.3,1.2,3.9-.1,2,2.8-.6,3.2,5.6,6.6,3.7,2.1,6.8,6.4,7.5,5.3,.1-.2,.4,.2,.7,.3-1.7,2.3-1.6,.9-3.6,3.3,.4,1.6,.3,1.2,.9,2.4,2,3.9,2.9,2.8,4.7,2.9,3.2,0,11.8,1.5,14.2,3.1,2.9,2.1,4.3,4.6,5.5,4.7l1.7,.1c2.6,.5,1.7,1.6,4.3,3.2,6.8,4.2,7.5,6.2,10.8,11.9,1.7,3.1,2.2,3.7,5.5,4.9,2-4.7-2-6.4-1.7-10.4,.1-1.4,1.3-3.3,1.5-4.8,.8-5-1.1-4.8-3.4-9.2-.9-1.7-1.1-3.5-2-5.5l-2.3-4.1c-2.6-7.5-1.2-3.4-.6-4.8,3.2,.2,1,.2,3,2.9,1,1.4,2.2,2.4,3.3,3.5-.3-5.4-3.4-4.1-8.6-14.2-1-2-.8-2.9-2.1-4.6l-6.9-8.2c-1.6-3-1.2-6.3-4.8-9.1-3.7,1.1-.3-.9-2.7,2.9-4.9-1.8-2.1-5-8.4-7.2l-2.5,1.5c.3,3.4,.7,1.3,1.1,5.3-4.6-1.9-2.5-2.1-4.4-5.4-1-1.8-7.4-8.2-9.9-15.2-3.1,0-2.6-.1-4.9,.7-1.3-1.8-2.1-2.4-2.6-5.2l-6.7,3.5c0-4.9,.6,.2,1.7-5.9-3.8-2.5-4.8-2.6-4.8-8.7-6.7-.1-4.7,.3-10-3.3-2.2-1.5-6-8.7-13.8-5-3.6,1.7-1.3,.4-2.6,1.9,0,0,.7,.5,.9,4.2-6.1,1.2-1.6,1.9-5.6,3.8l-1.9-2.6c.9-2,2.9-2.5,4.5-4-1.1-6.1-1.3-1.5-2.4-7.6-1.5-5-4.5-2.7-8.4-4.2Zm-24-50.6c.1,.1,.3,.3,.4,.4l4.2,4.2c4.7,5,2.2-.4,6.5,5.3,5.1,7,5.9,.1,11.4,6.2,2.5,2.8,2,.6,5.6,6.9,2.4,4.2,3.4,9.5,9.5,10.7-2.5-7.7-2.5-4.3-5.3-7.4-1.5-1.7-.4-1.4-2.4-3.6-5.7-6.3-4.6-4.7-6.2-13.2,0-.1,.7-5.6-7.2-5.3-7,.3-5.6-.4-9.3-6.4l-2.7-5.8c-2.6-7.2-3.4-1.9-5.6-7l-7.4-11.8c-.1-.1-.3-.7-.5-.9-4.2,.7-2.9,1.6-5-2-1.2,.6-.9,.6-1.9,.7-5.1,.6,4.3,.1-1.8-.2-2.6-.1,.5-.3-1.7,0s.4-.2-1.7,.7c1.6,1.4,0,1,2.5,1.1,.3,0,1.4-.5,1.8-.5l.9,3.1c-2.4-.5-4.6-.9-6.8,.7,.5,1.4,.3,.6,2.2,2l1,1c-.9,2.6-1.5,3.8-1,6.7l1.9,1.3c9.4,8.3-.2-.2,7.8,4.2,4.7,2.6,3.2-.5,5.1,.3,1.5,.6,1.1,3,2,5.1l3.7,3.5Zm82.6,44.5c-3.3-5.5-2.5,1.5-11.2-9.7-5,1.6-2.3,2.5-2,5.5l-3.1,1.9c-.1-.1-.3,.2-.5,.3,.6,2.5,1.3,4.3,3.8,3.5,.1,8.5,5,9.6,7.2,14.8,.8,2,0,1.5,2.9,2.6-.2,4.9-.2,4.3,2.9,6.6,3.5,2.7,1,1.6,3.4,4.9l8.4,9.2v-5.1c-3.7-2,1.1,.7-1.3-5l-.3-.6c-1.5-3.7-1.3-6.4-2-9.8l-4.2-10.8c-2-5,.2-2.1-1-4.8-1.9-4.1-1.1-.4-3-3.5Z"/><path id="sorsogon" class="cls-1" d="M256.3,188.3c2.2-3.2,1.8-3,.9-7.8-12.2-2.5-9.5-2-11.7,5.2-1.2,3.9-1.1,2.6-3.8,3.4-1.8-3.1,.2-2.6-2.7-4.7-.9-.6-3.6-1.7-4.4-2.4-1.3-1.3-1.4-2.6-3.2-4.3-3.6-3.4-7.2-4.1-9.2,1-4.5,12-6.6,1.1-21.8,13.3-4.1-1.6-3.4-3.3-6.7-5.1-2.9-.7-9.5,1.2-11.1,1.1-11.9-1.3-8.6-2.8-20.5,3.8,4.3,6,1.9,5,9.2,5,1,1.5,4,5.6,5.9,6.5,9.7,4.2,2,.9,7.1,4.6,.1-5.5-2.4-6.7,4.6-7.8-.8,3.3-2.4,4.8,.5,7.6,.7-1.7-.1-.6-.5-4.2,.3,.2,.6,.3,.8,.4s.5,.2,.8,.4c2.6,1.6,1.5,.6,2.4,2.5l2-3.2c1.4,2.4-.1,.7-.9,3-.7,1.9-.3,2.1,1.2,4.3,5.6-2.4,1.6-1.3,4.5-5,4.1,6,9.3-2.1,10-2.7,5-3.9,4.9-4.4,5.5-10.9,3.2,.9,2,.7,5.1,0l3.3,3.2,11.6-1.5c2.2,8.7,1,4.6-1.3,12.7-7.4,2.6-2.4-.9-9.9,.2-1.4,2.5,.6,1.1-1.2,4.7-2.7,.3-2.6,.9-5-1-.1-.1-.3-.3-.4-.4l-4.7-2.7c-1.7,2.8,.9,1-5,5.8-3-.9-2.4-1.7-4.5-.4,1.2,.6,2.1,1.2,2.6,1.4,2.5,.9,.7,0,3.1,.3,2.2,3.1,1.8,3.6,1.7,8.7-.2,13.9,7.7,15.4,9.7,18.9h3c.3,3.9,.9,4.4,3,7.1,4.9,6.3,12.6,6.2,16.9,3.2,1.3-1,.8-.5,2.2-1.8l-2.4-3.4,2.9-.9c-.7-4.3-3.5-4.8,.8-7.7,6.4-4.4,1.4-.6,3.2-6.8,1.1-3.6,.2-2.1-1-5.7,1.1-1.1,1.6-3.1,2.2-4.8,2.8-7.9,1-8.1-.2-16l-3.6-1.9c1.4-6.7,5.8-3.9,3.1-11.4,2.4-2.4,1.6-1.8,2.8-4.6l3.1,.8Z"/><path id="albay" class="cls-1" d="M212.3,144.2c-2,7.4-1.2,5.7,.7,11.9-3.2-1.2-1.6-.5-2.8-3.8-4.2,1.4,.6,2-3.9,3l-.2-6-10.3-5.6c-.2-4.6-.6-3.3-1.7-6.2-.9-2.4,.9-.7-1.7-4.7-1.9-3-1.2-2.9-2.6-5.7-1-2.1-1.7-2-3-4.6-5.9-.7-6.2-1-8.7-4.7-2.3-.1-3.2-.2-5.2,.3l-2.6,.9c-.1-.2-.4,.2-.7,.3-.6,7.5,5.2-.3,5.8,14.7l-3.7,2.4c-1.6,.7-2.7,1-4.3,1.5-4.8,1.3-3.1,2.5-7.4,1.9-4.6-.6-4.9,.3-8.6,2.3-7.5,4.1-4.4,7-5.4,4.7-.6-1.4-10.5,5.1-12.3,6.2,1,2.5-.2,.5,1.5,2.6,2,2.6,1.4,.7,4,6.1-2.1,3.5,.7-1.2-1.7,1.7-5.5,6.7-1.2,10.3-3.4,18.1,5.1,3.5-.3,2.1,3.9,5.7,3.8,1.9,10.1-9.6,18.2-1.5,1.9,1.9,1,2.4,3.9,4.6,11.4-2.9,1.4-6.4,21.7-4.1,5.5,.6,10.7-5.2,17.2,3.6,5.7-1.6,6.8-4.8,14.7-6.1,3.4-.6,5-.8,6.4-3.9,.7-1.5,.7-2.1,1.4-3.6l1.5-2.7c-4.1-2.4-1.4,1.4-5.2-3.9h-1.5c-2.5,0-6.7,5.5-6.8,5.8-1.1,2,.1,1.5-1.8,3.8-7.3,8.6-8.5,.9-10.3-2,3.8-2,2,2.3,4.2-3.7-1.2-2.2-3.6-1.7-3.6-5.8,0-21.8,12.6-3.9,20.7-12.5-1.6-2.2-2.1-2.1-3.4-4.3,3.1-6,3.1-2.2,5.9-6.7l-5.8-2.5c-7.7-2-2.4-4.2-15.3-8.6l12.2,11.1Zm7.6,5.8c1.9,6.8,5.5,5.7,11.2,7.9,8.3,3.3,8.9-2.6,8.9-2.7,2.2-3.8,1.3,.9,2.2-2.4,.1-.3,.4-.3,.5-.3-5.5-2.8-3.4-2.2-7.2-.2l-3.2-3.1-1.7,2.8c-2.9-.5-4.1-3-6.7-2.8l-4,.8Zm31.2,13.2c4.3,1,5.6,3.9,9.9,1-.8-3.4-.2-3.2-3.1-4.7-6.1-3.1-9.2-3.2-13.8-.2-2.6,1.7-.6,.3-1.6,1.6,5.7,4.7,4.1,1.3,8.6,2.3Z"/><path id="camarines-sur" class="cls-1" d="M162,126.6c0-11,5.3-.5,5.4-.2,1.6,4.6-5.4,3.5-5.4,.2ZM36.5,57.4c-1.4,12,2.2,1.5,8.9,9.6,.8,.9,.9,1.1,1.7,1.7-1.2,4.1,.3,4.8,3.4,7l.9-2.2c2.4,.7,7.6,.3,9,2.9,4.4,7.6,14.7,7.8,15.4,17.4-5,.5-2.3,.7-5,5.1,3.3,2.6,1.4,2.8,4.7,5.2,.7,.6,2.2,1.5,2.9,2.1,7,7,9.2,4.1,12.7,9.9,5,.2,4.2,.6,8.1,2.4,2.1,.9,1.8-.9,6.5,2.2,3.2,2.1,4.1,.7,7.2,3.1,2.2,1.7-.2,.9,2.2,1.7,10.1,3.2,5.6,8.4,8.9,14.9,1.3,2.7,2.4,2.5,3.6,6.4,1.5,5,.5,2.4,4.3,5.4,3.5-1.7,5.5-3.8,9.2-5.1l-1.2-5.5,3-2.8c1.3,1.5,2.6,2.6,5,3.7,6.8-3.8,4.8-4.3,13.8-4.1,.8,0,3.3-1.4,6-2.1,3.1-.8,4.1-1.3,6.3-3.1,.5-11.6-6.3-5.4-5.7-15.4l7.9-1.6c0-6-5.1-3.9-8.6-5.6,0-3.1,.2-2.4,2.1-3.9-1.2-2.9-2.7-3.8-1.2-8.2,.1-.4,2.6-6.2,3-7,3.1-6.1,8.3-4.2,13.2-1.6q1.6-.9,3.3-2,3.8,1.6,8.4,2c7.3,.7,9.6,6.1,15.7-2.3,1.6-2.1-.9-.2,1.9-2.2,4.3,.9,.1,.6,4.3,1.5,3.4,.8,7-1.9,9.5,2.2,0-5.8-4.8-5.5-4.2-10.9-5.6-.1-6.3,.2-10.4-4-4.4,.9-6.4-1.1-7.7-2.1-.7-.5-.3-.3-1.5-1l-8.8-8.6c-1.8-3.7,.7-1.2-2.6-2.7-1.2,1.9-.3,0-1.2,2.8-.5,1.7-.3,1.5-1,3.2-4.4,0-4.2-.9-5.8-1-2.9-.2-.1,1.2-4.3-.1l-7.9-4c-1.5-1.1-1.1-.9-1.7-1.5l-3.1,1.9c-1.9-1.4-3.1-2.5-5.1-.6-1.7-2.6,.2-5.6-6.8-5.9,.1,2.6,.7,2,.9,4.3l-2.1,1.7c-4.1-2.7-3.6-4.3-3.6-9.2l-2.2-.4c.3-2.2,.3-2.5-.7-4.3l-.8-1.1c-.1-.3-.3-.4-.4-.5-.3,.4,.6,.9-1.8,1.7-3.6,1.2-2.7-.3-2.7-.3-.2-3.1-.3-2.7,3.2-3.1-3.8-2.8-.9-5.6-4.4-8.2-1,2-.4,0,.7,3.4l-4.4,1c.4,2.8-.5,2.6,1.5,3.2-4.8,1.1-2.6-3.6-8.4-4,.7,3.2,1.2,.5,2.3,4.6-.2,.2-.4,.3-.5,.4-3.9,3.6,0,6-6.1,4.9,.7,1.7,.2,2.1,.9,4.8,3.6,1.3,1.5,.1,4.3,2.2,1.9,1.5,2,1.7,3.2,3.4,5.6-2.5,3.4-1,4.2-.6-1.6,2.2-3.1,2.7-5.1,5.2,1.9,3.4,6.3,9.2,4.8,13.8-1.7,5-6.6,6.8-10.9,8.6l-3.6,1.3c-5.7,.8-12.5-.5-18.1-3-6.4-2.9-6.2-6-3.9-12.1-10.9-7.8-13.1-9.8-24.9-16.9-13.5-8.1-12.8-6.5-28.9-2.3-1.6,.4,.2-.3-2.1,1-4.4,.7-7.1,2.7-9.6,3.3Zm145.8-5.1c1.9,1.3,2,2.5,2.3,3.4l-7.2-.6c-1.3,3.2-.5,1.9,.9,5.9,5.9,0,4.1-1.7,9.2-4.2-3.7-3.9-.4-3.5-5.2-4.5Zm23.2,8.5c3.3,2.2,1.4,2.2,3.8,2.6,0-5.3-1.4-2.2-.4-10.5-4.3,1.1-2.4,4-3.4,7.9Z"/><path id="catanduanes" class="cls-1" d="M282,63.4c-4.4-2.9-.9-1.2-2.8-5.2-5.5,.2-1.3,1-5,3.9-.7-1.4-.4-.8-1-2.4-1.5-3.9,0-2.2-1.8-2.9-3.7-1.3,.3-4.4-5-12.7-1-1.7-2.9-2.7-5.8-7.1-1.3-1.9,.6-.4-1.6-1.7-5.5,5.5-.7,7.5-9.9,4.5,.1,4.1-1.1,.8,.7,5.7,1.4,3.7,.3,.9-.4,4.5-1.1,5.6,5.3,9-.3,15.2,1,2.7,1.3,2,1,4.5-1.8,18.4,.9,5.5-4.8,18.7-2.7,6.3-3.6,1.1-7.2,5.3-2.2,2.5-1.7,4.4-2.3,3.3-.1-.2-.3,.5-.5,.7,2.2,1.8,2.3,4.2,4.8,6.1,2.9,2.2,6.2,1.5,11.8,7.5,3,3.2,3.6,4.9,8.2,5,.2-5.7-1.9-2.6,3.3-9.7,5.3-.4,5.4-1.5,10.2-.8,1.3,2.7,.9,3,1.4,5.8,4.8-4,2.6-4.2,3.6-13.5,5.7-2.5,6.8-.6,6.8-.6,1.8-2.5,1.4-.6,1.9-3.6l-2.5-2.3c0-.1-1.2-3.4-1.3-3.6,1-1.3,1.9-2.7,2.4-3.7l.4-1.7c-.2-1.2-1.1-2-1.1-2,3.8-3.5,1.7,.9,2.9-3.1,.3-.1,.8,1.4-.5-2.8-.6-2-.7-2.2-1.7-3.3,3.1-4.4,3.2-3.3-3.9-8Zm-3.8-7.3c-.2-3.8-1-3.8-4.4-4.3,.7,4,.3,4.5,4.4,4.3Z"/><path id="camarines-norte" class="cls-1" d="M54,42.6c10.2,4.1,19.5,8.9,29.2,14.4,6.5,3.8,12.8,9.1,19.2,13.1,2.1-5.2,.6-2.6,4.8-4.9,.2-5.2-.6-3.4-1.2-6.7-.8-3.9,.9-3.6-.1-6.5-2.1-3.1-1-.4-3.8-3.1-3.1-2.9-2.9-4.4-3.4-8.7,.9-.8,0-.7,2.4-1.7l-.7-3.9c-1.3,.4-2.1-.3-2.2-.3l-2.9,.9c.2-3,.5-1.2-.5-2.5-.1-.1-.3-.2-.5-.3l-10.7-13.1c-.1,0-.3-.2-.3-.2-3.7-3.2-6.7-7.6-11.1-10.2-4.3,1.5-7.7,3.1-6.4-3.5-4-.9-1.8-1.1-5.4-2.1-2.6,1.5-5.6,5.5-5.7-1.9-3.2,.2-3.4-.4-6,0,.7,2.1,.7,2.2,1.9,4.1,2,2.9,1.2-.1,1.5,3.4-4-.7-2.6-1.3-6.1-1.9-.5,2,1,1.4-1.8,2.7l-.3-3.5c-.9,3.2-1.6,2.2-4.7,1.1l.1-2.9c-3.8-.1-8.9-2.3-11.5-4.4l.2,3.6-2-1c-3.8-1.8-5,.6-8.1,2-2.2,1.1-2.2,1-3.4,.2-.7,5-.7,3.4-3.8,4.7l-2.8,3.2c-.1,.2-.3,.4-.4,.5l-.8,1.2c1.6,1.6,1.9,1.9,3,4.3-3.3-.2-3.3,.5-4-1.5-1.8,6.1-1.1,.3-2.7,4.5,.3,6.3,2.3,5.8,2.8,7.8,1.3,5-2.8,2.1-4.9,1.9l-.9,7.4c10.1,1.2,8.2,1,16.9-10.2,3.6,.3,4.1,1.2,7.4,2.6,2.6,1.1,4.7,1.5,7.2,2.7,11.1,3.2,14.1,5.4,22.5,8.7Z"/></g></g></svg>