<svg id="region-xi" xmlns="http://www.w3.org/2000/svg" viewBox="0 0 201.86 360.51"><defs><style>.cls-1{fill:#f874ab;fill-rule:evenodd;}</style></defs><g id="region-xi"><path id="davao-del-sur" class="cls-1" d="M62.1,213.01c.1-3.2,.2-2.2,.7-4.4,.8-3.7,.6-1.6-.3-2.2-3.4-2.2,.2-1.7-2.9-4.9l-5.2,1.2c-1.4-2.2-.9-3.3-2.4-4.8l-8-7.2c-1.3-1.1-.7-.8-1.7-1.6-1.3-1-.1-.6-1.8-1,1.9,2.4,3.3,3.1,3.7,6.3-6.3,.4-2.8-2.3-8.6-2.8-1.2-3.9,.2-11.6-2.6-17.2,3.3-4.1,3.3-5.8,1.7-11.3,3.4-.8,3-.9,4.5-3.8s10-11.2,10.2-12.5c-.7-4.4-1.5-6,1.6-10.1,2-2.6,4.8-5.3,7.6-7.3,2.6,.8,1.6,.1,3.2,2,1.4-1.9,1.2-1,3.3-2.3,2.2-1.3,6.5-7,7.5-9.3,2.6-6.3-3.5-7.9-.7-17.3-3.5,1.7-1.7,4.1-12,2.6l.2-28.2c-4.1-1.2-4.1-2.4-5-6.9-1.2-5.9-2.3-5-2.7-8.4-3.1-.9-19.5-.3-24-.4-7-.1-7.3-1.7-7.6,4.3-.2,2.9-1.4,5.4-2.2,14.3-.3,3.8-.7,2-1.3,5.1-.9,4.8,1.2,5.2,1.4,10,.3,7.5,.7,13,.7,20.8,12,9.2,3.7,6.3,6.8,13.2,1.3,2.9,1.7,2.9,2.1,6.5-9.4,.3-4,5-9.6,11.1l-11,9.1c-1.1,5.3-.3,3.1-2.2,7l-5.5,1.1c2.8,10.8-.5,5.5,3.6,10.9-1.3,3.6-1.4-1.1-1.6,4.2-.1,3.6,0,2,1.4,3.9l4.4,6.5c3,7.4,1.7,10.2,1.7,18.3,4.4,.3,3.5,2,6.5,3.7,6.8,3.8,11.3-9.1,15.8-11.9,2.1,1.8,4,3.8,5,6.1,2.9,6.3,2.2,2.2,5.1,5.9,4.1,5.2,.6,11.2,.6,17.8l4.8,4.4c2.3,2.6,1.6,3.3,3.4,5.9,3.5,5.1,2.3,7.1,2.3,14.8,1.9,4.7,4.3,2.7,3.8,10.1-.2,3.3-2,6.9-2.9,10-2.6,9.7-3.9,9.2-3.9,21.8-1.6,3.5-1-.4-2.6,4.8-2.7,9.4-8,11.2-9.4,19.5-.8,4.8-3.7,5.5-9.7,10.1,1.4,3.2-.2,2.1,3.4,3.1,1.7,.5,2.7,.8,4.3,.3l15.1-22.4c3.7-7.5,6.8-8.5,8.4-10.9,1.1-1.7,1.2-2.2,2.3-3.6,4.3-5.1,13.2-15.4,14.9-22,1.7-6.4,1-6.7,1.2-9.8,.1-2.1,1.2-3.6,1.5-5,.9-3.5-.3,.9-.8-3.5-.2-2.1,1.3-9.9-1.9-15.8-1.5-2.8,.4,.5-1.6-1.9-4.9-5.8-1.6-6.7-6.1-15.5-1.1-2.1-.9-1.3-2-4.1-1.4-3.6-2.8-3.5-4.9-6.4Zm-31.1,145.8c5.3,3.5,2.5-.1,6.3,.5,1.4,.2,0,.7,3.7,1.2,.2-7.7,1.5-8.4-5.9-8.3-4.5,1.8-2.3,3.6-6.5,5.3,.9,.5,1.6,.8,2.4,1.3Zm19.2-9.2c.7-3.9,.5-3.8-2-6.2-1.4,2-.4,.8-1.2,2.5-.1,.2-.4,.7-.5,.9l.5,10.4c2.3-2.2,2.5-3.9,3.2-7.6Z"/><path id="compostella-valley" class="cls-1" d="M106.2,63.11c-.9,.9-4.1-.3-4.6,2.9-1.8,9.2-4.6,7.6-5.1,9.8,.9,5.6,1.9,2.3,.7,9.8,1.7,1.5,3.1,1.7,2.2,4.3-2,6-2.9,11.7,1,16.5,1.9,2.3,1.5,2.9,2.7,5.6,2.2,4.5,.9,1.1,.8,5.5-.2,5.6,4.5,5,7,8.6l1-1c3-3,7.2-4.9,11-6.8l15.2-8.3c3.6-1.8,19.9-9.5,21-11.9,.1-.2-.2-26.5-.8-26.8-.3-.1-.8-4.3-4.7-18.7l-10.1-34.5c-3.7-11.8-3.4-8.9-.5-16.1-4.1,2.7-8.4,5.8-12.6,8.2-2.9-2.1-6.8-3.4-8.7-6.1-1.3-1.9,0-1.2-2-2.1l-44.9,.3c.7,1.8,.8,3.4,1.2,5.8,.2,1.5,.2,2.4,.4,3.8,.4,3.1,1.4,14,2.6,15.7,2.5,1.8,2.6,1.1,4,3.6,3,5.6-.2,.7,3.6,3.9,1.9,1.5,2.9,4.7,3,7.2l-.5,2.8c3.9,.5,3.1-1.8,5-5.1,2.3-4.2,9.3-15.2,13.9-16.2,5,4.9,4.6,12.1-.2,16.2,1.2,5.9,4.2,4.7,3.1,10.7-1.4,8.7,2.5,12-4.7,12.4Z"/><path id="davao-del-norte" class="cls-1" d="M90.6,145.21c-.3-2.9-.4-4.3-.7-7.5-.3-4.3-1.4-2.7-1.3-5.5,.3-4.7,2.2-8.5,2.7-12.1-1.7-2.9-3.2-5-5.5-6.1-2.9-1.5-1.1,.1-3.8-2.3-6.4-5.7-2.2,2.3-8.6,10.9,.7,1.5,1.2,3,2.1,4.6,2.7-.8,.7-.8,4.1-1.4,2.7,5.9,2.4,8.1,2.3,14.6,0,.3,1.6,4.9,1.6,4.9,1,1.8,.4-1.8,2.2,5.1,2.9-1.1,1.3,.7,4.9-5.2Zm-9.9-1.1c-1.4-3-2.6-3.3-5.4-1.8,0,.2-.3,.5-.3,.6l-.2,1.7c1,5,3.3,4.8,3.8,5,.1,.1,4.7-.3,2.1-5.5Zm24.4-82.3l2.3-.8c.3-4,2.2-10.5,2.2-11.8,0-1.7-3.2-4.6-4.3-8.4,3.4-3.3,5.6-6.9,3.6-11.8-.7-1.9-.9-1.9-2.2-3.1-4.8,5.5-4.9,6.6-8.7,12.1-3.4,4.8-3.9,9.5-10.4,9.5-.2-2.4,.7-3.2,.3-5.2,0-.3-.3-.9-.4-1.1-.9-2.2-1.2-3.1-3.1-4.4-2.6-1.9-1.8-2.5-3.7-4.8-3.9-4.9-2.7,1-4.7-11.1l-1-6.9c-.5-2.9-.3-10.8-3.3-11.5l-31.6,1.8c.4,1.4,.5,3.9,1.2,5.2,0,.1,2.3,2.8,2.6,3.1,0,5-.7,11.1,1,15.1,2.5,6.1,2.4,6.1,2.4,13l-2.3,4v.5c0,2.2,.8,2.5,.2,5l-.9,1.9c0-.1-.2,.4-.3,.6-4.8,1.7-6.5,.3-12.4,.2-6.9-.1-.9-1.4-10.8-.8v8.2l32.3,.4,.9,2.6c4.4,10,.9,11.3,8.7,13.6-.6,5-1.2,1.3-1.5,6.1l.2,21.4c5.1,.6,6.5-1,9.7-2.9,1.1-.6,3.3-1.4,4.4-2.2,1-.7,1.2-1.1,1.9-1.6,3.1-2.2,6.7-6.1,9.6-7.2,4.7-1.7,4.8-2.9,8.7-4.5,0-2.6,.9-4.3,.4-5.7-.2-.6-2.7-1.5-.5-6.1,2.6-5.2,4.2-2.3,3.8-10.2l5.7-2.2Z"/><path id="davao-oriental" class="cls-1" d="M160.7,71.61c0-.1-.8-2.7-1-3.1,.3-1.4-.7-2.4-1.5-6.1-2.9-13.6-7.6-26-11.3-39.3-3.5-12.8-6.5-13.9-1.9-19.4,4.7-5.6,15-3.2,22-3.2,.2,3.1-.2,7.2,.2,9.8,.7,4.4,2,5,4.4,6.7-2.9,6.8,.5,3.8,5,6.8l.9,.7c3.1,2,2-.1,4.6,3.8,4.4,6.7,4.4,5.8,10.6,6.9,2.2,.4,1.4,1,4.3,1.9-3.2,3.1-2.1,8.4-2.1,13l2.8,2c-2.4,1.9-1.4,.2-2,4.2,3.9,4.4,3.7,3.7,5.6,10.7,1.8,6.7-.9,7-6.3,8.4l-.9,4.8c1.7,1.3,1.5,1.3,3.6,2.2-1.7,1.5-1.9,1.5-2.4,3.8-.5,3.1,.3,1.8,1.7,4.5-1.7,1.2-3.4,2.6-1,5.1,1.5,1.7,3.4,.6,5.8,.8-1.2,2-.8,1.7-1.7,3.7-1.9,3.9-.9,.5-2.6,3.4-2.4,4,1.3,2.1-5.2,3.9-.1,4.1-.9,3.9-1.6,7.3-.9,5-5.1,4.3-7,8.3l-.9,3.3c-.1,.2-.2,.4-.3,.7-1.2,2.8-1.2,.3-2.1,4.3-.5,2.3,.2,2.9,.9,4.7-6.7-.7-2.2,.2-7.7,.7-3.1,.2-5.2-.8-9.1-.8-2,2.8-3.2,4.6-3.2,9.4l-3.8,.5c1,3.7,1,4.1,3.6,5.6,5.8,3.6,5.3,5.6,5.5,12.3-6.7-.4-9.4-1.7-6.1-7.9-1-2-1.6-1.9-2.8-4.3-1.5-3.2-.7-4.5-3.4-5.6-3.1-1.3-5.1-3.5-8.6-2.8-1,2.2-.6,3.5-1.5,5.3-2.3,4.3-.4,0-3.8,1.5,.8,1.6,1.8,2.7,3.1,5,2.9,5.3,7.5,11,11.1,15.6-2.2,2.6-5.3,16.4-5,20.8,.3,5.4,1.7,6.6-.9,11.7-1.4,2.7,.5,8.1,.7,11.8-5,4.3-2.4,7-3.8,12-3.2-2.3-3.2-3.8-7.2-5.5,.8-1.6,1.3-3.6,1.9-5.4-12.9-13.3-7.2-16.6-8.4-23.6-.4-2.6-2.3-5.1-2.8-8.8l2.9-3c-.5-3.4-.2-4.9,.8-7.9-4.2-6.5-.3-7.9-2.9-16.9-2.7-1.2-5.8-1.5-7.7-2.9-8.8-6.7-5-9.5-4.7-16.9,.2-3.8-2.4-4.7-4.6-7.1,4.6-8.5,1-2.6,10.2-8.4l38.3-20.4c-.3-20.2-.5-28.9-.7-28.6Z"/></g></svg>